<?xml version="1.0" standalone="no"?>
<!DOCTYPE svg PUBLIC "-//W3C//DTD SVG 20010904//EN"
 "http://www.w3.org/TR/2001/REC-SVG-20010904/DTD/svg10.dtd">
<svg version="1.0" xmlns="http://www.w3.org/2000/svg"
 width="500.000000pt" height="500.000000pt" viewBox="0 0 500.000000 500.000000"
 preserveAspectRatio="xMidYMid meet">

<g transform="translate(0.000000,500.000000) scale(0.100000,-0.100000)"
fill="#000000" stroke="none">
<path d="M2270 4886 c-245 -44 -480 -147 -654 -285 -95 -76 -244 -237 -308
-332 -246 -367 -303 -796 -168 -1274 154 -543 569 -1320 1172 -2193 186 -268
185 -268 324 -80 686 923 1158 1831 1269 2439 91 499 -38 952 -370 1297 -55
57 -138 133 -184 168 -146 109 -362 205 -561 249 -102 23 -417 29 -520 11z
m446 -131 c409 -71 763 -333 946 -700 91 -183 128 -326 135 -530 6 -173 -4
-275 -48 -453 -121 -494 -428 -1112 -914 -1837 -154 -230 -323 -465 -333 -465
-9 0 -205 285 -335 485 -224 348 -345 552 -524 890 -202 381 -338 720 -410
1023 -25 106 -27 134 -28 307 0 205 13 282 72 440 163 438 543 757 998 839
109 19 331 20 441 1z"/>
<path d="M2341 4280 c-239 -50 -456 -212 -565 -420 -67 -127 -89 -210 -94
-360 -4 -116 -1 -148 17 -220 74 -292 281 -511 571 -602 65 -20 95 -23 230
-23 135 0 165 3 230 23 290 91 497 310 571 602 29 112 23 317 -11 425 -69 220
-221 400 -425 503 -116 58 -187 74 -340 78 -77 2 -160 -1 -184 -6z m304 -135
c39 -8 113 -36 165 -61 125 -62 246 -179 303 -294 101 -203 103 -427 6 -629
-35 -71 -58 -101 -133 -176 -146 -145 -287 -205 -482 -205 -202 0 -343 59
-490 205 -136 136 -191 258 -201 446 -11 210 51 373 197 520 70 71 101 94 180
133 52 25 124 53 160 60 86 19 208 19 295 1z"/>
<path d="M3146 1024 c-20 -20 -20 -68 0 -88 18 -18 19 -19 174 -41 308 -46
582 -144 634 -228 46 -73 -211 -185 -574 -251 -520 -94 -1240 -94 -1760 0
-363 66 -620 178 -574 251 50 80 274 165 578 218 138 25 156 34 156 85 0 34
-28 60 -67 60 -47 0 -248 -38 -369 -70 -345 -91 -495 -232 -414 -390 107 -209
745 -352 1570 -352 1052 0 1720 218 1570 512 -62 122 -297 221 -676 285 -170
29 -226 31 -248 9z"/>
</g>
</svg>
